<svg id="SvgjsSvg1054" width="288" height="288" xmlns="http://www.w3.org/2000/svg" version="1.1" xmlns:xlink="http://www.w3.org/1999/xlink" xmlns:svgjs="http://svgjs.com/svgjs"><defs id="SvgjsDefs1055"></defs><g id="SvgjsG1056"><svg xmlns="http://www.w3.org/2000/svg" width="288" height="288" version="1.0" viewBox="0 0 512 512"><g transform="matrix(.1 0 0 -.1 0 512)" fill="#0483d7" class="color000 svgShape"><path d="M2667 4732l-387-387 385-385 385-385 182 182 183 183-80 80-80 80 653 0 653 0 24-25 25-24 0-1041 0-1040 245 0 245 0 0 1060c0 729-3 1076-11 1112-41 198-216 381-416 432-52 14-155 16-737 16-372 0-676 3-676 7 0 4 35 43 77 85l78 78-180 180-180 180-388-388zm458 88l60-60-165-165-164-164 884-3 885-3 67-32c123-58 211-166 237-291 8-37 11-349 11-1013l0-960-82 3-83 3-5 987-5 986-30 43c-41 58-99 97-164 109-62 12-1711 14-1711 3 0-4 72-80 160-168l160-160-65-65-65-65-265 265c-146 146-265 269-265 275 0 13 522 535 535 535 6 0 37-27 70-60zM20 4350l0-410 1065 0 1065 0 0 410 0 410-1065 0-1065 0 0-410zm328-2l-3-243-82-3-83-3 0 246 0 245 85 0 85 0-2-242zm1640 0l-3-243-737-3-738-2 0 245 0 245 740 0 740 0-2-242z" fill="#0483d7" class="color000 svgShape"></path><path d="M670 4350l0-80 85 0 85 0 0 80 0 80-85 0-85 0 0-80zM1000 4350l0-80 85 0 85 0 0 80 0 80-85 0-85 0 0-80zM1330 4350l0-80 80 0 80 0 0 80 0 80-80 0-80 0 0-80zM1660 4350l0-80 80 0 80 0 0 80 0 80-80 0-80 0 0-80zM20 3360l0-410 1065 0 1065 0 0 410 0 410-1065 0-1065 0 0-410zm328 3l2-243-85 0-85 0 0 245 0 246 83-3 82-3 3-242zm1642 2l0-245-740 0-740 0 0 245 0 245 740 0 740 0 0-245z" fill="#0483d7" class="color000 svgShape"></path><path d="M677 3444c-4-4-7-43-7-86l0-78 85 0 86 0-3 83-3 82-75 3c-42 1-79 0-83-4zM1007 3444c-4-4-7-43-7-86l0-79 83 3 82 3 0 80 0 80-75 3c-42 1-79 0-83-4zM1330 3365l0-85 80 0 80 0 0 85 0 85-80 0-80 0 0-85zM1660 3365l0-85 80 0 80 0 0 85 0 85-80 0-80 0 0-85zM1097 2783c-4-3-7-16-7-28 0-44-32-126-62-161-85-97-208-107-326-27l-53 36-223-222-223-223 40-60c37-52 42-67 45-126 8-136-63-221-210-252l-58-11 0-314c0-350-8-316 75-330 125-21 201-117 193-246-3-57-9-75-41-123-20-30-37-59-37-63 0-5 99-107 219-227l220-219 53 36c71 48 132 63 197 47 101-24 162-91 185-202l13-63 315-3 316-2 6 47c10 67 51 148 91 179 86 66 187 66 286 2l62-40 223 223 222 222-39 60c-44 67-54 108-45 174 13 95 94 182 184 197 20 4 49 9 65 12l27 6 0 313 0 314-37 6c-121 21-177 56-217 136-44 88-34 165 33 262l30 44-223 222-223 223-53-36c-72-49-121-62-190-47-107 21-179 103-195 221l-7 50-312 0c-172 0-316-3-319-7zm517-208c29-72 97-140 182-182 98-48 205-57 299-25l60 21 126-125 125-125-19-57c-28-85-21-218 16-294 40-82 106-150 177-184l60-29 0-180 0-180-52-24c-69-31-147-111-183-186-39-81-47-212-18-297l19-57-125-125-126-126-65 21c-180 57-389-30-471-197l-32-64-176 0-176 0-24 51c-81 178-297 271-483 208l-62-20-125 125-125 125 17 48c39 112 29 226-30 335-34 62-118 140-177 164l-46 19 0 180 0 180 46 19c63 26 145 104 181 173 56 106 65 214 26 326l-17 48 125 125 125 125 65-21c80-27 185-24 272 10 75 28 167 113 203 186l26 54 182 0 181 0 19-45z" fill="#0483d7" class="color000 svgShape"></path><path d="M1275 2286 c-202 -32 -374 -124 -521 -279 -338 -355 -322 -918 33-1258 445 -425 1158 -303 1432 246 70 140 86 216 86 400 0 189 -11 239 -85
392 -135 277 -395 464 -700 502 -103 13 -142 13 -245 -3z m311 -176 c226 -57
423 -226 508 -436 121 -299 36 -634 -215 -849 -62 -53 -159 -105 -254 -137
-61 -20 -89 -23 -215 -23 -130 1 -153 3 -225 28 -117 39 -199 91 -295 187
-146 145 -213 308 -213 515 0 251 116 470 326 614 161 110 390 150 583 101z" fill="#0483d7" class="color000 svgShape"></path><path d="M1290 1955c-312-70-513-394-434-698 37-143 140-283 258-352 174-101 377-110 554-23 86 42 205 159 250 244 64 123 82 281 48 413-48 187-204 347-395 407-70 22-205 26-281 9zm292-189c88-42 152-105 195-194 36-73 38-80 38-177 0-97-2-104-38-177-81-165-245-251-427-226-254 34-412 305-321 549 41 107 120 186 236 235 53 22 71 24 160 21 84-3 109-7 157-31zM2970 1390l0-410 1065 0 1065 0 0 410 0 410-1065 0-1065 0 0-410zm330 5l0-245-85 0-85 0 0 245 0 245 85 0 85 0 0-245zm1640 0l0-245-740 0-740 0 0 245 0 245 740 0 740 0 0-245z" fill="#0483d7" class="color000 svgShape"></path><path d="M3630 1395l0-85 80 0 80 0 0 85 0 85-80 0-80 0 0-85zM3954 1467c-3-8-4-45-2-83l3-69 83-3 82-3 0 86 0 85-80 0c-58 0-82-4-86-13zM4287 1474c-4-4-7-43-7-86l0-78 85 0 86 0-3 83-3 82-75 3c-42 1-79 0-83-4zM4610 1395l0-85 80 0 80 0 0 85 0 85-80 0-80 0 0-85zM2970 410l0-410 1065 0 1065 0 0 410 0 410-1065 0-1065 0 0-410zm328 3l-3-248-80 0-80 0-3 235c-1 129 0 240 2 247 4 9 30 13 86 13l80 0-2-247zm1642-3l0-250-737 2-738 3-3 235c-1 129 0 240 2 247 4 10 155 13 741 13l735 0 0-250z" fill="#0483d7" class="color000 svgShape"></path><path d="M3630 410l0-80 80 0 80 0 0 80 0 80-80 0-80 0 0-80zM3950 410l0-80 85 0 85 0 0 80 0 80-85 0-85 0 0-80zM4280 410l0-80 85 0 85 0 0 80 0 80-85 0-85 0 0-80zM4610 410l0-80 80 0 80 0 0 80 0 80-80 0-80 0 0-80z" fill="#0483d7" class="color000 svgShape"></path></g></svg></g></svg>