<svg id="SvgjsSvg1066" width="288" height="288" xmlns="http://www.w3.org/2000/svg" version="1.1" xmlns:xlink="http://www.w3.org/1999/xlink" xmlns:svgjs="http://svgjs.com/svgjs"><defs id="SvgjsDefs1067"></defs><g id="SvgjsG1068"><svg xmlns="http://www.w3.org/2000/svg" fill="#7300B5" enable-background="new 0 0 512 512" viewBox="0 0 512 512" width="288" height="288"><path d="M375.451 315.733c0-4.71-3.823-8.533-8.533-8.533h-51.2c-4.71 0-8.533 3.823-8.533 8.533s3.823 8.533 8.533 8.533h51.2C371.628 324.267 375.451 320.444 375.451 315.733zM341.317 93.867V51.2c0-4.71-3.823-8.533-8.533-8.533s-8.533 3.823-8.533 8.533v42.667c0 23.526 19.14 42.667 42.667 42.667h76.8v162.133c0 4.71 3.823 8.533 8.533 8.533s8.533-3.823 8.533-8.533V128c0-4.71-3.823-8.533-8.533-8.533h-85.333C352.803 119.467 341.317 107.981 341.317 93.867zM366.917 204.8h-68.267c-4.71 0-8.533 3.823-8.533 8.533 0 4.71 3.823 8.533 8.533 8.533h68.267c4.71 0 8.533-3.823 8.533-8.533C375.451 208.623 371.628 204.8 366.917 204.8zM273.051 213.333c0-4.71-3.823-8.533-8.533-8.533h-51.2c-4.71 0-8.533 3.823-8.533 8.533 0 4.71 3.823 8.533 8.533 8.533h51.2C269.228 221.867 273.051 218.044 273.051 213.333zM213.317 256c-4.71 0-8.533 3.823-8.533 8.533 0 4.71 3.823 8.533 8.533 8.533h17.067c4.71 0 8.533-3.823 8.533-8.533 0-4.71-3.823-8.533-8.533-8.533H213.317zM213.317 170.667h85.333c4.71 0 8.533-3.823 8.533-8.533 0-4.71-3.823-8.533-8.533-8.533h-85.333c-4.71 0-8.533 3.823-8.533 8.533C204.784 166.844 208.607 170.667 213.317 170.667zM264.517 273.067h85.333c4.71 0 8.533-3.823 8.533-8.533 0-4.71-3.823-8.533-8.533-8.533h-85.333c-4.71 0-8.533 3.823-8.533 8.533C255.984 269.244 259.807 273.067 264.517 273.067zM315.717 358.4c-4.71 0-8.533 3.823-8.533 8.533s3.823 8.533 8.533 8.533h17.067c4.71 0 8.533-3.823 8.533-8.533s-3.823-8.533-8.533-8.533H315.717zM281.584 307.2h-68.267c-4.71 0-8.533 3.823-8.533 8.533s3.823 8.533 8.533 8.533h68.267c4.71 0 8.533-3.823 8.533-8.533S286.294 307.2 281.584 307.2zM281.584 358.4h-68.267c-4.71 0-8.533 3.823-8.533 8.533s3.823 8.533 8.533 8.533h68.267c4.71 0 8.533-3.823 8.533-8.533S286.294 358.4 281.584 358.4zM484.754 351.497l-17.067-17.067c-13.116-13.116-33.101-13.09-46.199 0L309.684 446.234c-1.596 1.596-2.5 3.772-2.5 6.033v51.2c0 4.71 3.823 8.533 8.533 8.533h51.2c2.261 0 4.437-.904 6.033-2.5l111.804-111.804C498.348 384.102 498.348 365.099 484.754 351.497zM410.454 369.596l13.534 13.534-74.138 74.138-13.534-13.534L410.454 369.596zM324.251 494.933v-39.134l39.134 39.134H324.251zM375.451 482.867l-13.534-13.534 74.138-74.138 13.534 13.534L375.451 482.867zM472.688 385.63l-11.034 11.034-39.134-39.134 11.034-11.034c6.741-6.733 15.292-6.767 22.067 0l17.067 17.067C479.591 370.475 479.591 378.726 472.688 385.63z" fill="#0483d7" class="color000 svgShape"></path><path d="M281.584,494.933H59.717c-14.114,0-25.6-11.486-25.6-25.6V42.667c0-14.114,11.486-25.6,25.6-25.6h269.534L412.084,99.9
				c3.336,3.337,8.73,3.337,12.066,0c3.337-3.336,3.337-8.73,0-12.066L338.817,2.5c-1.596-1.604-3.772-2.5-6.033-2.5H59.717
				C36.191,0,17.051,19.14,17.051,42.667v426.667c0,23.526,19.14,42.667,42.667,42.667h221.867c4.71,0,8.533-3.823,8.533-8.533
				S286.294,494.933,281.584,494.933z" fill="#0483d7" class="color000 svgShape"></path><path d="M281.584 409.6h-68.267c-4.71 0-8.533 3.823-8.533 8.533s3.823 8.533 8.533 8.533h68.267c4.71 0 8.533-3.823 8.533-8.533S286.294 409.6 281.584 409.6zM170.651 162.133c0-4.71-3.823-8.533-8.533-8.533h-51.2c-4.71 0-8.533 3.823-8.533 8.533v51.2c0 4.71 3.823 8.533 8.533 8.533h51.2c4.71 0 8.533-3.823 8.533-8.533V162.133zM153.584 204.8h-34.133v-34.133h34.133V204.8zM110.917 426.667h51.2c4.71 0 8.533-3.823 8.533-8.533v-51.2c0-4.71-3.823-8.533-8.533-8.533h-51.2c-4.71 0-8.533 3.823-8.533 8.533v51.2C102.384 422.844 106.207 426.667 110.917 426.667zM119.451 375.467h34.133V409.6h-34.133V375.467zM121.951 321.766c1.604 1.604 3.78 2.5 6.033 2.5.282 0 .555-.008.845-.043 2.543-.247 4.838-1.63 6.255-3.755l34.133-51.2c2.611-3.925 1.553-9.225-2.364-11.836-3.934-2.62-9.216-1.553-11.836 2.364l-28.356 42.539-9.711-9.702c-3.336-3.337-8.73-3.337-12.066 0s-3.337 8.73 0 12.066L121.951 321.766z" fill="#0483d7" class="color000 svgShape"></path></svg></g></svg>