<svg id="SvgjsSvg1033" width="288" height="288" xmlns="http://www.w3.org/2000/svg" version="1.1" xmlns:xlink="http://www.w3.org/1999/xlink" xmlns:svgjs="http://svgjs.com/svgjs"><defs id="SvgjsDefs1034"></defs><g id="SvgjsG1035"><svg xmlns="http://www.w3.org/2000/svg" width="288" height="288" fill="none" viewBox="0 0 416 490"><path stroke="#0483d7" stroke-linecap="round" stroke-linejoin="round" stroke-miterlimit="10" stroke-width="40" d="M347.277 189.264C340.168 172.201 335.375 154.347 330.93 136.405C314.368 69.5597 254.029 20 182.063 20H182.062C92.8339 20 20.5 92.3339 20.5 181.562V231.875C20.5 290.283 58.1721 339.786 110.5 357.721V365V395V470H245.5V395H312.531C325.217 395 335.5 384.717 335.5 372.031V365V320L395.5 305L347.277 189.264Z" fill="#ffffff" class="color000 svgShape colorStroke7300B5 svgStroke"></path><path stroke="#0483d7" stroke-linecap="round" stroke-linejoin="round" stroke-miterlimit="10" stroke-width="40" d="M133 155V140C133 115.147 153.147 95 178 95C202.853 95 223 115.147 223 140V150.438C223 162.963 218.024 174.976 209.168 183.832L191.832 201.168C182.976 210.024 178 222.037 178 234.562V245" fill="#ffffff" class="color000 svgShape colorStroke7300B5 svgStroke"></path></svg></g></svg>