<svg id="SvgjsSvg1039" width="288" height="288" xmlns="http://www.w3.org/2000/svg" version="1.1" xmlns:xlink="http://www.w3.org/1999/xlink" xmlns:svgjs="http://svgjs.com/svgjs"><defs id="SvgjsDefs1040"></defs><g id="SvgjsG1041"><svg xmlns="http://www.w3.org/2000/svg" width="288" height="288" version="1.0" viewBox="0 0 512 512"><g transform="matrix(.1 0 0 -.1 0 512)" fill="#0483d7" class="color000 svgShape"><path d="M2443 5106 c-88 -22 -164 -66 -234 -135 -70 -69 -106 -130 -133 -220-19 -64 -22 -347 -5 -421 19 -85 70 -172 143 -244 l70 -69 -30 -26 c-16 -15
-108 -60 -203 -101 -202 -86 -244 -118 -293 -218 l-33 -67 -3 -358 c-2 -284
-6 -357 -15 -348 -7 5 -82 40 -167 76 -92 39 -167 78 -184 94 l-28 29 69 68
c73 72 122 156 142 244 16 69 13 345 -4 409 -52 196 -218 344 -416 371 -243
33 -477 -115 -549 -348 -17 -53 -20 -93 -20 -231 0 -239 28 -321 152 -445 l69
-69 -26 -27 c-16 -16 -93 -56 -195 -100 -192 -82 -238 -111 -281 -178 -59 -93
-59 -95 -59 -685 l0 -539 29 -29 29 -29 391 0 391 0 4 -22 c2 -13 9 -63 15
-113 29 -227 126 -468 269 -669 73 -103 235 -265 339 -339 531 -378 1236 -378
1767 1 103 73 265 235 338 338 143 201 240 442 269 669 6 50 13 100 15 113 l4
22 391 0 391 0 29 29 29 29 0 539 c0 595 0 596 -63 690 -43 65 -92 95 -284
177 -97 42 -173 80 -188 96 l-26 27 69 69 c124 124 152 206 152 445 0 193 -14
255 -78 355 -174 268 -554 307 -777 80 -113 -116 -145 -211 -145 -436 0 -236
29 -319 153 -444 l69 -68 -28 -29 c-23 -22 -174 -94 -351 -166 -9 -4 -13 78
-15 349 l-3 353 -33 67 c-49 101 -92 132 -294 218 -95 41 -186 86 -202 101
l-30 26 70 69 c73 72 124 159 143 244 17 74 14 357 -5 421 -27 90 -63 151
-133 220 -126 126 -299 176 -468 135z m265 -190 c135 -69 192 -184 192 -387 0
-203 -63 -320 -209 -387 -114 -53 -259 -28 -358 61 -78 71 -113 173 -113 326
0 158 29 248 103 321 75 75 141 101 252 96 63 -2 91 -8 133 -30z m-1568 -902
c95 -28 164 -85 212 -177 22 -39 23 -54 23 -227 0 -181 -1 -186 -27 -235 -32
-62 -103 -129 -166 -158 -72 -33 -198 -31 -272 4 -149 71 -206 192 -198 419 4
110 8 133 33 187 69 156 236 234 395 187z m3063 -13 c69 -30 139 -100 172
-173 49 -109 46 -347 -5 -453 -28 -58 -96 -124 -160 -154 -74 -35 -201 -37
-272 -4 -63 29 -134 96 -166 158 -26 49 -27 54 -27 235 0 174 1 188 23 228 86
162 274 232 435 163z m-1489 -93 c48 -62 90 -88 275 -167 90 -39 175 -81 189
-93 49 -46 52 -65 52 -393 0 -168 -1 -305 -3 -305 -1 0 -38 16 -82 35 l-80 34
-5 192 c-5 186 -6 191 -29 210 -30 25 -72 24 -105 -2 l-26 -20 0 -165 c0 -90
-3 -164 -7 -164 -5 0 -48 7 -98 16 -118 19 -355 20 -465 0 -47 -9 -91 -16 -97
-16 -10 0 -13 39 -13 160 0 157 -1 161 -25 185 -29 30 -74 32 -106 6 -23 -19
-24 -24 -29 -212 l-5 -192 -70 -29 c-38 -16 -76 -32 -82 -35 -20 -8 -18 595 1
640 22 53 54 74 234 151 180 78 231 110 275 173 l26 38 121 -2 121 -1 33 -44z
m-1603 -882 c60 10 61 10 74 -17 32 -61 108 -112 263 -178 l152 -64 -113 -116
c-171 -177 -288 -367 -361 -587 -29 -89 -66 -266 -66 -319 0 -67 5 -65 -181
-65 l-169 0 0 389 c0 214 -3 397 -6 406 -10 25 -62 47 -95 40 -59 -13 -59 -12
-59 -442 l0 -393 -85 0 -85 0 0 480 c0 530 0 527 61 572 19 14 101 53 183 88
174 75 228 108 274 170 l34 46 59 -10 c39 -6 80 -6 120 0z m3023 0 l54 10 34
-45 c46 -63 100 -97 274 -170 82 -35 164 -75 183 -89 61 -46 61 -43 61 -572
l0 -480 -85 0 -85 0 0 391 c0 231 -4 398 -10 408 -16 31 -65 46 -100 31 -17
-7 -35 -21 -40 -31 -6 -10 -10 -177 -10 -408 l0 -391 -169 0 c-187 0 -181 -2
-181 67 0 19 -9 81 -20 136 -61 301 -189 543 -407 768 l-113 116 152 64 c156
66 231 117 263 178 14 27 14 27 79 18 43 -7 85 -7 120 -1z m-1656 -178 l-3
-83 -35 -3 c-248 -20 -520 -151 -710 -341 -179 -180 -292 -404 -331 -660 l-12
-81 -84 0 -84 0 7 53 c65 537 415 969 919 1136 97 32 224 58 293 60 l43 1 -3
-82z m317 66 c582 -101 1026 -578 1099 -1181 l7 -53 -84 0 -84 0 -12 81 c-67
438 -359 792 -776 942 -70 25 -199 54 -265 59 l-35 3 -3 83 -3 82 33 0 c18 0
74 -7 123 -16z m-315 -423 c5 -93 7 -105 29 -122 30 -24 72 -24 102 0 22 17
24 29 29 123 l5 103 45 -4 c179 -14 402 -119 555 -262 165 -154 284 -381 310
-591 l7 -56 -102 -4 c-93 -3 -103 -5 -121 -27 -27 -33 -25 -86 6 -116 22 -23
31 -25 121 -25 l96 0 -7 -57 c-48 -388 -358 -733 -748 -833 -40 -10 -92 -19
-117 -21 l-45 -4 -5 103 c-5 94 -7 106 -29 123 -30 24 -72 24 -102 0 -22 -17
-24 -29 -29 -123 l-5 -103 -45 4 c-182 14 -413 125 -563 270 -163 157 -276
376 -302 584 l-7 57 96 0 c90 0 99 2 121 25 31 30 33 83 6 116 -18 22 -28 24
-121 27 l-102 4 7 56 c11 88 51 214 96 305 142 283 411 486 718 541 42 8 81
13 86 12 6 -2 12 -49 15 -105z m-1081 -1062 c40 -259 152 -482 335 -664 50
-50 123 -111 162 -137 152 -101 354 -179 509 -195 l70 -8 3 -82 3 -83 -33 0
c-59 0 -211 31 -301 61 -510 170 -856 597 -921 1137 l-7 52 84 0 84 0 12 -81z
m2495 29 c-56 -466 -322 -851 -731 -1059 -148 -75 -372 -139 -490 -139 l-34 0
3 82 c3 80 4 83 28 85 273 27 519 143 715 338 184 182 296 405 336 664 l12 81
84 0 84 0 -7 -52z" fill="#0483d7" class="color000 svgShape"></path><path d="M2506 2159 c-15 -11 -26 -31 -26 -44 0 -19 -8 -25 -46 -34 -167 -42
-336 -213 -360 -363 -5 -28 -11 -38 -25 -38 -10 0 -30 -11 -45 -24 -39 -33
-39 -89 0 -122 15 -13 35 -24 45 -24 14 0 20 -10 25 -38 24 -150 193 -321 360
-363 38 -9 46 -15 46 -34 0 -30 44 -65 80 -65 36 0 80 35 80 65 0 19 8 25 46
34 167 42 336 213 360 363 5 28 11 38 25 38 10 0 30 11 45 24 39 33 39 89 0
122 -15 13 -35 24 -45 24 -14 0 -20 10 -25 38 -24 150 -193 321 -360 363 -38
9 -46 15 -46 34 0 30 -44 65 -80 65 -15 0 -39 -9 -54 -21z m-11 -272 c27 -43
83 -50 118 -15 13 13 26 30 28 37 7 20 86 -17 139 -65 69 -62 124 -174 86
-174 -20 0 -56 -48 -56 -75 0 -27 36 -75 56 -75 37 0 -14 -107 -81 -169 -56
-51 -137 -91 -144 -70 -9 29 -51 59 -81 59 -30 0 -72 -30 -81 -59 -7 -20 -86
17 -139 65 -69 62 -124 174 -86 174 20 0 56 48 56 75 0 27 -36 75 -56 75 -38
0 17 112 86 174 35 32 112 76 130 75 3 0 14 -14 25 -32z" fill="#0483d7" class="color000 svgShape"></path><path d="M2523 1670 c-75 -30 -45 -160 37 -160 82 0 112 118 39 155 -32 17
-44 18 -76 5z" fill="#0483d7" class="color000 svgShape"></path></g></svg></g></svg>