<svg id="SvgjsSvg1047" width="288" height="288" xmlns="http://www.w3.org/2000/svg" version="1.1" xmlns:xlink="http://www.w3.org/1999/xlink" xmlns:svgjs="http://svgjs.com/svgjs"><defs id="SvgjsDefs1048"></defs><g id="SvgjsG1049"><svg xmlns="http://www.w3.org/2000/svg" width="288" height="288" version="1.0" viewBox="0 0 512 512"><g transform="matrix(.1 0 0 -.1 0 512)" fill="#0483d7" class="color000 svgShape"><path d="M205 5102 c-99 -34 -174 -117 -195 -215 -8 -37 -10 -701 -8 -2357 l3-2305 21 -46 c28 -60 93 -125 153 -153 l46 -21 1895 0 1895 0 46 21 c60 28
125 93 153 153 20 44 21 60 24 461 2 458 3 452 -60 483 -32 16 -40 16 -70 4
-65 -27 -63 -10 -68 -459 l-5 -410 -33 -29 -32 -29 -1855 2 -1855 3 -27 28
-28 27 0 2300 0 2300 28 27 27 28 1855 3 1855 2 32 -29 33 -29 5 -586 5 -586
27 -26 c37 -37 99 -37 136 0 l27 26 0 603 c0 595 0 603 -21 648 -28 60 -93
125 -153 153 l-46 21 -1880 2 c-1763 2 -1883 1 -1930 -15z" fill="#0483d7" class="color000 svgShape"></path><path d="M1956 4565c-362-75-630-326-728-682-31-111-31-333 1-448 90-334 349-588 687-672 95-23 313-23 408 0 280 70 502 250 626 508 66 138 84 220 84 389 0 118-5 160-22 223-92 333-340 581-669 668-102 27-291 34-387 14zm379-219c113-36 197-88 290-181 94-94 145-177 182-295 24-73 27-102 27-205-1-137-17-212-70-320-60-121-52-119-137-29-62 65-163 141-211 157-5 2 6 34 25 72 29 59 34 80 37 160 5 112-13 187-64 262-68 100-169 153-294 153-224 0-370-172-358-421 3-73 9-97 38-155 18-37 29-69 24-71-48-16-149-92-211-157-85-90-77-92-137 29-54 111-70 182-69 325 0 113 2 133 30 212 42 122 85 190 178 283 93 93 178 146 290 180 107 32 123 34 245 30 76-3 127-11 185-29zm-122-451c42-31 67-92 67-163 0-79-18-122-66-158-31-24-47-29-94-29-101 0-160 68-160 184 0 90 34 155 95 182 34 15 128 5 158-16zm22-570c121-31 241-113 296-202l22-36-24-18c-41-31-160-86-229-105-45-13-100-18-180-18-80 0-135 5-180 18-69 19-188 74-229 105l-24 18 22 36c12 20 46 58 76 86 122 111 295 156 450 116zM4596 3859c-67-16-156-71-203-123-55-64-1310-2234-1324-2291-12-51-89-739-89-799 0-59 30-95 85-103 44-5 48-2 600 407l131 96 631 1095c347 602 640 1112 651 1135 101 202 6 457-208 558-54 25-79 30-150 33-47 1-102-2-124-8zm187-204c55-23 93-60 117-117 34-80 25-134-45-258-32-55-61-100-66-100-6 0-93 48-194 106l-185 106 19 32c10 17 31 54 47 81 45 80 81 121 127 144 50 25 129 28 180 6zm-268-554c100-58 169-104 167-112-3-13-977-1705-994-1726-7-8-60 18-194 95-101 59-184 112-184 117 0 6 124 226 277 490 754 1307 723 1256 741 1245 9-5 94-54 187-109zm-986-2000c0-7-321-242-325-238-3 3 35 350 42 384 4 20 13 17 144-59 77-45 140-84 139-87zM770 2407c-38-18-63-77-50-113 16-42 39-63 75-70 111-21 159 133 58 185-28 14-52 14-83-2zM1205 2411c-64-27-81-110-32-158l27-28 745-3 744-2 33 29c27 24 33 36 33 71 0 35-6 47-33 71l-32 29-733-1c-402 0-741-4-752-8zM770 1847c-38-18-63-77-50-113 16-42 39-63 75-70 111-21 159 133 58 185-28 14-52 14-83-2zM1205 1851c-64-27-81-110-32-158l27-28 745-3 744-2 33 29c27 24 33 36 33 71 0 35-6 47-33 71l-32 29-733-1c-402 0-741-4-752-8zM770 1287c-38-18-63-77-50-113 16-42 39-63 75-70 111-21 159 133 58 185-28 14-52 14-83-2zM1205 1291c-64-27-81-110-32-158l27-28 745-3 744-2 33 29c27 24 33 36 33 71 0 35-6 47-33 71l-32 29-733-1c-402 0-741-4-752-8zM2084 730c-32-13-64-59-64-91 0-18 11-41 29-61l29-33 306-3 305-3 33 30c27 24 33 36 33 71 0 35-6 47-33 71l-32 29-293-1c-160 0-302-4-313-9z" fill="#0483d7" class="color000 svgShape"></path></g></svg></g></svg>